<svg width="169" height="32" viewBox="0 0 169 32" fill="none" xmlns="http://www.w3.org/2000/svg">
<path d="M13.2533 8.22653V6.7229C13.2533 6.32771 12.9256 6 12.5304 6C12.1352 6 11.8075 6.32771 11.8075 6.7229V8.1687H5.54239V6.7229C5.54239 6.32771 5.21468 6 4.81949 6C4.42431 6 4.09659 6.32771 4.09659 6.7229V8.22653C1.49416 8.46749 0.231495 10.0193 0.0387222 12.323C0.0194449 12.6025 0.250772 12.8338 0.520655 12.8338H16.8292C17.1087 12.8338 17.3401 12.5928 17.3111 12.323C17.1184 10.0193 15.8557 8.46749 13.2533 8.22653Z" fill="#7C71F1"/>
<path d="M16.3857 14.2794H0.963865C0.433739 14.2794 0 14.7131 0 15.2432V21.1807C0 24.0722 1.4458 26 4.81932 26H12.5302C15.9038 26 17.3496 24.0722 17.3496 21.1807V15.2432C17.3496 14.7131 16.9158 14.2794 16.3857 14.2794ZM5.9856 22.3469C5.93741 22.3855 5.88921 22.4337 5.84102 22.4626C5.78319 22.5011 5.72536 22.5301 5.66752 22.5493C5.60969 22.5783 5.55186 22.5975 5.49403 22.6072C5.42656 22.6168 5.36873 22.6264 5.30126 22.6264C5.17595 22.6264 5.05065 22.5975 4.93499 22.5493C4.80968 22.5011 4.7133 22.4337 4.61691 22.3469C4.44342 22.1638 4.33739 21.9132 4.33739 21.6626C4.33739 21.412 4.44342 21.1614 4.61691 20.9782C4.7133 20.8915 4.80968 20.824 4.93499 20.7758C5.10848 20.6987 5.30126 20.6794 5.49403 20.718C5.55186 20.7276 5.60969 20.7469 5.66752 20.7758C5.72536 20.7951 5.78319 20.824 5.84102 20.8626C5.88921 20.9011 5.93741 20.9397 5.9856 20.9782C6.1591 21.1614 6.26512 21.412 6.26512 21.6626C6.26512 21.9132 6.1591 22.1638 5.9856 22.3469ZM5.9856 18.9734C5.80247 19.1469 5.55186 19.2529 5.30126 19.2529C5.05065 19.2529 4.80005 19.1469 4.61691 18.9734C4.44342 18.7903 4.33739 18.5397 4.33739 18.2891C4.33739 18.0385 4.44342 17.7878 4.61691 17.6047C4.88679 17.3348 5.31089 17.2481 5.66752 17.4023C5.79283 17.4505 5.89885 17.518 5.9856 17.6047C6.1591 17.7878 6.26512 18.0385 6.26512 18.2891C6.26512 18.5397 6.1591 18.7903 5.9856 18.9734ZM9.35913 22.3469C9.17599 22.5204 8.92539 22.6264 8.67478 22.6264C8.42418 22.6264 8.17357 22.5204 7.99044 22.3469C7.81694 22.1638 7.71092 21.9132 7.71092 21.6626C7.71092 21.412 7.81694 21.1614 7.99044 20.9782C8.34707 20.6216 9.0025 20.6216 9.35913 20.9782C9.53262 21.1614 9.63865 21.412 9.63865 21.6626C9.63865 21.9132 9.53262 22.1638 9.35913 22.3469ZM9.35913 18.9734C9.31093 19.012 9.26274 19.0505 9.21455 19.0891C9.15672 19.1276 9.09888 19.1565 9.04105 19.1758C8.98322 19.2047 8.92539 19.224 8.86756 19.2336C8.80008 19.2433 8.74225 19.2529 8.67478 19.2529C8.42418 19.2529 8.17357 19.1469 7.99044 18.9734C7.81694 18.7903 7.71092 18.5397 7.71092 18.2891C7.71092 18.0385 7.81694 17.7878 7.99044 17.6047C8.07719 17.518 8.18321 17.4505 8.30851 17.4023C8.66514 17.2481 9.08924 17.3348 9.35913 17.6047C9.53262 17.7878 9.63865 18.0385 9.63865 18.2891C9.63865 18.5397 9.53262 18.7903 9.35913 18.9734ZM12.7327 22.3469C12.5495 22.5204 12.2989 22.6264 12.0483 22.6264C11.7977 22.6264 11.5471 22.5204 11.364 22.3469C11.1905 22.1638 11.0844 21.9132 11.0844 21.6626C11.0844 21.412 11.1905 21.1614 11.364 20.9782C11.7206 20.6216 12.376 20.6216 12.7327 20.9782C12.9061 21.1614 13.0122 21.412 13.0122 21.6626C13.0122 21.9132 12.9061 22.1638 12.7327 22.3469ZM12.7327 18.9734C12.6845 19.012 12.6363 19.0505 12.5881 19.0891C12.5302 19.1276 12.4724 19.1565 12.4146 19.1758C12.3567 19.2047 12.2989 19.224 12.2411 19.2336C12.1736 19.2433 12.1061 19.2529 12.0483 19.2529C11.7977 19.2529 11.5471 19.1469 11.364 18.9734C11.1905 18.7903 11.0844 18.5397 11.0844 18.2891C11.0844 18.0385 11.1905 17.7878 11.364 17.6047C11.4604 17.518 11.5567 17.4505 11.682 17.4023C11.8555 17.3252 12.0483 17.3059 12.2411 17.3445C12.2989 17.3541 12.3567 17.3734 12.4146 17.4023C12.4724 17.4216 12.5302 17.4505 12.5881 17.489L12.7327 17.6047C12.9061 17.7878 13.0122 18.0385 13.0122 18.2891C13.0122 18.5397 12.9061 18.7903 12.7327 18.9734Z" fill="#7C71F1"/>
<path d="M33.5496 23.14C32.5763 23.14 31.6963 22.9733 30.9096 22.64C30.1363 22.3067 29.5229 21.8267 29.0696 21.2C28.6163 20.5733 28.3829 19.8333 28.3696 18.98H31.3696C31.4096 19.5533 31.6096 20.0067 31.9696 20.34C32.3429 20.6733 32.8496 20.84 33.4896 20.84C34.1429 20.84 34.6563 20.6867 35.0296 20.38C35.4029 20.06 35.5896 19.6467 35.5896 19.14C35.5896 18.7267 35.4629 18.3867 35.2096 18.12C34.9563 17.8533 34.6363 17.6467 34.2496 17.5C33.8763 17.34 33.3563 17.1667 32.6896 16.98C31.7829 16.7133 31.0429 16.4533 30.4696 16.2C29.9096 15.9333 29.4229 15.54 29.0096 15.02C28.6096 14.4867 28.4096 13.78 28.4096 12.9C28.4096 12.0733 28.6163 11.3533 29.0296 10.74C29.4429 10.1267 30.0229 9.66 30.7696 9.34C31.5163 9.00667 32.3696 8.84 33.3296 8.84C34.7696 8.84 35.9363 9.19333 36.8296 9.9C37.7363 10.5933 38.2363 11.5667 38.3296 12.82H35.2496C35.2229 12.34 35.0163 11.9467 34.6296 11.64C34.2563 11.32 33.7563 11.16 33.1296 11.16C32.5829 11.16 32.1429 11.3 31.8096 11.58C31.4896 11.86 31.3296 12.2667 31.3296 12.8C31.3296 13.1733 31.4496 13.4867 31.6896 13.74C31.9429 13.98 32.2496 14.18 32.6096 14.34C32.9829 14.4867 33.5029 14.66 34.1696 14.86C35.0763 15.1267 35.8163 15.3933 36.3896 15.66C36.9629 15.9267 37.4563 16.3267 37.8696 16.86C38.2829 17.3933 38.4896 18.0933 38.4896 18.96C38.4896 19.7067 38.2963 20.4 37.9096 21.04C37.5229 21.68 36.9563 22.1933 36.2096 22.58C35.4629 22.9533 34.5763 23.14 33.5496 23.14ZM40.1971 17.46C40.1971 16.3133 40.4304 15.3133 40.8971 14.46C41.3638 13.5933 42.0104 12.9267 42.8371 12.46C43.6638 11.98 44.6104 11.74 45.6771 11.74C47.0504 11.74 48.1838 12.0867 49.0771 12.78C49.9838 13.46 50.5904 14.42 50.8971 15.66H47.8771C47.7171 15.18 47.4438 14.8067 47.0571 14.54C46.6838 14.26 46.2171 14.12 45.6571 14.12C44.8571 14.12 44.2238 14.4133 43.7571 15C43.2904 15.5733 43.0571 16.3933 43.0571 17.46C43.0571 18.5133 43.2904 19.3333 43.7571 19.92C44.2238 20.4933 44.8571 20.78 45.6571 20.78C46.7904 20.78 47.5304 20.2733 47.8771 19.26H50.8971C50.5904 20.46 49.9838 21.4133 49.0771 22.12C48.1704 22.8267 47.0371 23.18 45.6771 23.18C44.6104 23.18 43.6638 22.9467 42.8371 22.48C42.0104 22 41.3638 21.3333 40.8971 20.48C40.4304 19.6133 40.1971 18.6067 40.1971 17.46ZM59.1884 11.76C60.0284 11.76 60.775 11.9467 61.4284 12.32C62.0817 12.68 62.5884 13.22 62.9484 13.94C63.3217 14.6467 63.5084 15.5 63.5084 16.5V23H60.7084V16.88C60.7084 16 60.4884 15.3267 60.0484 14.86C59.6084 14.38 59.0084 14.14 58.2484 14.14C57.475 14.14 56.8617 14.38 56.4084 14.86C55.9684 15.3267 55.7484 16 55.7484 16.88V23H52.9484V8.2H55.7484V13.3C56.1084 12.82 56.5884 12.4467 57.1884 12.18C57.7884 11.9 58.455 11.76 59.1884 11.76ZM76.471 17.22C76.471 17.62 76.4443 17.98 76.391 18.3H68.291C68.3577 19.1 68.6377 19.7267 69.131 20.18C69.6243 20.6333 70.231 20.86 70.951 20.86C71.991 20.86 72.731 20.4133 73.171 19.52H76.191C75.871 20.5867 75.2577 21.4667 74.351 22.16C73.4443 22.84 72.331 23.18 71.011 23.18C69.9443 23.18 68.9843 22.9467 68.131 22.48C67.291 22 66.631 21.3267 66.151 20.46C65.6843 19.5933 65.451 18.5933 65.451 17.46C65.451 16.3133 65.6843 15.3067 66.151 14.44C66.6177 13.5733 67.271 12.9067 68.111 12.44C68.951 11.9733 69.9177 11.74 71.011 11.74C72.0643 11.74 73.0043 11.9667 73.831 12.42C74.671 12.8733 75.3177 13.52 75.771 14.36C76.2377 15.1867 76.471 16.14 76.471 17.22ZM73.571 16.42C73.5577 15.7 73.2977 15.1267 72.791 14.7C72.2843 14.26 71.6643 14.04 70.931 14.04C70.2377 14.04 69.651 14.2533 69.171 14.68C68.7043 15.0933 68.4177 15.6733 68.311 16.42H73.571ZM77.7948 17.42C77.7948 16.3 78.0148 15.3067 78.4548 14.44C78.9081 13.5733 79.5214 12.9067 80.2948 12.44C81.0681 11.9733 81.9281 11.74 82.8748 11.74C83.5948 11.74 84.2814 11.9 84.9348 12.22C85.5881 12.5267 86.1081 12.94 86.4948 13.46V8.2H89.3348V23H86.4948V21.36C86.1481 21.9067 85.6614 22.3467 85.0348 22.68C84.4081 23.0133 83.6814 23.18 82.8548 23.18C81.9214 23.18 81.0681 22.94 80.2948 22.46C79.5214 21.98 78.9081 21.3067 78.4548 20.44C78.0148 19.56 77.7948 18.5533 77.7948 17.42ZM86.5148 17.46C86.5148 16.78 86.3814 16.2 86.1148 15.72C85.8481 15.2267 85.4881 14.8533 85.0348 14.6C84.5814 14.3333 84.0948 14.2 83.5748 14.2C83.0548 14.2 82.5748 14.3267 82.1348 14.58C81.6948 14.8333 81.3348 15.2067 81.0548 15.7C80.7881 16.18 80.6548 16.7533 80.6548 17.42C80.6548 18.0867 80.7881 18.6733 81.0548 19.18C81.3348 19.6733 81.6948 20.0533 82.1348 20.32C82.5881 20.5867 83.0681 20.72 83.5748 20.72C84.0948 20.72 84.5814 20.5933 85.0348 20.34C85.4881 20.0733 85.8481 19.7 86.1148 19.22C86.3814 18.7267 86.5148 18.14 86.5148 17.46ZM102.529 11.92V23H99.7095V21.6C99.3495 22.08 98.8761 22.46 98.2895 22.74C97.7161 23.0067 97.0895 23.14 96.4095 23.14C95.5428 23.14 94.7761 22.96 94.1095 22.6C93.4428 22.2267 92.9161 21.6867 92.5295 20.98C92.1561 20.26 91.9695 19.4067 91.9695 18.42V11.92H94.7695V18.02C94.7695 18.9 94.9895 19.58 95.4295 20.06C95.8695 20.5267 96.4695 20.76 97.2295 20.76C98.0028 20.76 98.6095 20.5267 99.0495 20.06C99.4895 19.58 99.7095 18.9 99.7095 18.02V11.92H102.529ZM108.092 8.2V23H105.292V8.2H108.092ZM121.159 17.22C121.159 17.62 121.132 17.98 121.079 18.3H112.979C113.045 19.1 113.325 19.7267 113.819 20.18C114.312 20.6333 114.919 20.86 115.639 20.86C116.679 20.86 117.419 20.4133 117.859 19.52H120.879C120.559 20.5867 119.945 21.4667 119.039 22.16C118.132 22.84 117.019 23.18 115.699 23.18C114.632 23.18 113.672 22.9467 112.819 22.48C111.979 22 111.319 21.3267 110.839 20.46C110.372 19.5933 110.139 18.5933 110.139 17.46C110.139 16.3133 110.372 15.3067 110.839 14.44C111.305 13.5733 111.959 12.9067 112.799 12.44C113.639 11.9733 114.605 11.74 115.699 11.74C116.752 11.74 117.692 11.9667 118.519 12.42C119.359 12.8733 120.005 13.52 120.459 14.36C120.925 15.1867 121.159 16.14 121.159 17.22ZM118.259 16.42C118.245 15.7 117.985 15.1267 117.479 14.7C116.972 14.26 116.352 14.04 115.619 14.04C114.925 14.04 114.339 14.2533 113.859 14.68C113.392 15.0933 113.105 15.6733 112.999 16.42H118.259ZM126.002 13.64C126.362 13.0533 126.829 12.5933 127.402 12.26C127.989 11.9267 128.656 11.76 129.402 11.76V14.7H128.662C127.782 14.7 127.116 14.9067 126.662 15.32C126.222 15.7333 126.002 16.4533 126.002 17.48V23H123.202V11.92H126.002V13.64ZM132.528 23.14C132.022 23.14 131.602 22.9867 131.268 22.68C130.948 22.36 130.788 21.9667 130.788 21.5C130.788 21.0333 130.948 20.6467 131.268 20.34C131.602 20.02 132.022 19.86 132.528 19.86C133.022 19.86 133.428 20.02 133.748 20.34C134.068 20.6467 134.228 21.0333 134.228 21.5C134.228 21.9667 134.068 22.36 133.748 22.68C133.428 22.9867 133.022 23.14 132.528 23.14ZM145.044 20.34H139.484L138.564 23H135.624L140.644 9.02H143.904L148.924 23H145.964L145.044 20.34ZM144.284 18.1L142.264 12.26L140.244 18.1H144.284ZM153.6 9.04V23H150.8V9.04H153.6Z" fill="#7C71F1"/>
</svg>
